<svg width="55" height="55" viewBox="0 0 55 55" fill="none" xmlns="http://www.w3.org/2000/svg">
<path fill-rule="evenodd" clip-rule="evenodd" d="M27.5 0C12.32 0 0 12.32 0 27.5C0 42.68 12.32 55 27.5 55C42.68 55 55 42.68 55 27.5C55 12.32 42.68 0 27.5 0ZM13.9425 44.77C15.125 42.295 22.33 39.875 27.5 39.875C32.67 39.875 39.9025 42.295 41.0575 44.77C37.3175 47.74 32.615 49.5 27.5 49.5C22.385 49.5 17.6825 47.74 13.9425 44.77ZM27.5 34.375C31.515 34.375 41.0575 35.9975 44.99 40.7825C47.795 37.0975 49.5 32.505 49.5 27.5C49.5 15.3725 39.6275 5.5 27.5 5.5C15.3725 5.5 5.5 15.3725 5.5 27.5C5.5 32.505 7.205 37.0975 10.01 40.7825C13.9425 35.9975 23.485 34.375 27.5 34.375ZM27.5 11C22.165 11 17.875 15.29 17.875 20.625C17.875 25.96 22.165 30.25 27.5 30.25C32.835 30.25 37.125 25.96 37.125 20.625C37.125 15.29 32.835 11 27.5 11ZM23.375 20.625C23.375 22.9075 25.2175 24.75 27.5 24.75C29.7825 24.75 31.625 22.9075 31.625 20.625C31.625 18.3425 29.7825 16.5 27.5 16.5C25.2175 16.5 23.375 18.3425 23.375 20.625Z" fill="#0D1C3D"/>
</svg>
