<svg width="22" height="24" viewBox="0 0 22 24" fill="none" xmlns="http://www.w3.org/2000/svg">
<path d="M17.2733 3.05333L20.3267 0H9.66V10.6667L12.7267 7.6C15.3533 9.54667 17.06 12.64 17.06 16.16C17.06 17.9067 16.6333 19.5467 15.8867 21C18.9933 18.9733 21.06 15.48 21.06 11.4933C21.06 8.13333 19.58 5.13333 17.2733 3.05333Z" fill="white"/>
<path d="M4.94 7.84C4.94 6.09333 5.36667 4.45333 6.11334 3C2.99334 5.02667 0.940002 8.52 0.940002 12.5067C0.940002 15.8667 2.40667 18.8667 4.72667 20.9467L1.66 24H12.3267V13.3333L9.26 16.4C6.64667 14.4533 4.94 11.36 4.94 7.84Z" fill="white"/>
</svg>
