<svg width="28" height="28" viewBox="0 0 28 28" fill="none" xmlns="http://www.w3.org/2000/svg">
<path d="M14 0.666687C6.64002 0.666687 0.666687 6.64002 0.666687 14C0.666687 21.36 6.64002 27.3334 14 27.3334C21.36 27.3334 27.3334 21.36 27.3334 14C27.3334 6.64002 21.36 0.666687 14 0.666687ZM14 24.6667C8.12002 24.6667 3.33335 19.88 3.33335 14C3.33335 8.12002 8.12002 3.33335 14 3.33335C19.88 3.33335 24.6667 8.12002 24.6667 14C24.6667 19.88 19.88 24.6667 14 24.6667ZM14.4134 12.8534C12.0534 12.2534 11.2934 11.6 11.2934 10.6267C11.2934 9.50669 12.3467 8.72002 14.0934 8.72002C15.9334 8.72002 16.6267 9.60002 16.68 10.9067H18.96C18.8934 9.12002 17.8 7.48002 15.64 6.94669V4.66669H12.5334V6.92002C10.52 7.34669 8.90669 8.65335 8.90669 10.6667C8.90669 13.0534 10.8934 14.2534 13.7867 14.9467C16.3867 15.56 16.9067 16.48 16.9067 17.44C16.9067 18.1467 16.3867 19.2934 14.1067 19.2934C11.9734 19.2934 11.1334 18.3334 11.0134 17.1067H8.72002C8.85335 19.3734 10.5334 20.6534 12.5334 21.0667V23.3334H15.6534V21.1067C17.68 20.72 19.28 19.56 19.2934 17.4134C19.28 14.48 16.76 13.4667 14.4134 12.8534Z" fill="white"/>
</svg>
