<svg width="28" height="28" viewBox="0 0 28 28" fill="none" xmlns="http://www.w3.org/2000/svg">
<path d="M15.3334 0.700012V4.74001C19.8534 5.39335 23.3334 9.26001 23.3334 13.9667C23.3334 15.1667 23.0934 16.3 22.6934 17.3533L26.16 19.3933C26.9067 17.74 27.3334 15.9 27.3334 13.9667C27.3334 7.06001 22.0667 1.36668 15.3334 0.700012ZM14 23.3C8.84002 23.3 4.66669 19.1267 4.66669 13.9667C4.66669 9.26001 8.14669 5.39335 12.6667 4.74001V0.700012C5.92002 1.36668 0.666687 7.04668 0.666687 13.9667C0.666687 21.3267 6.62669 27.3 13.9867 27.3C18.4 27.3 22.3067 25.1533 24.7334 21.8467L21.2667 19.8067C19.56 21.94 16.9467 23.3 14 23.3Z" fill="white"/>
</svg>
