<svg width="10" height="10" viewBox="0 0 10 10" fill="none" xmlns="http://www.w3.org/2000/svg">
<path d="M4.5835 2.91667H5.41683V3.75H4.5835V2.91667ZM4.5835 4.58333H5.41683V7.08333H4.5835V4.58333ZM5.00016 0.833333C2.70016 0.833333 0.833496 2.7 0.833496 5C0.833496 7.3 2.70016 9.16667 5.00016 9.16667C7.30016 9.16667 9.16683 7.3 9.16683 5C9.16683 2.7 7.30016 0.833333 5.00016 0.833333ZM5.00016 8.33333C3.16266 8.33333 1.66683 6.8375 1.66683 5C1.66683 3.1625 3.16266 1.66667 5.00016 1.66667C6.83766 1.66667 8.3335 3.1625 8.3335 5C8.3335 6.8375 6.83766 8.33333 5.00016 8.33333Z" fill="#00508C"/>
</svg>
