<svg width="22" height="22" viewBox="0 0 22 22" fill="none" xmlns="http://www.w3.org/2000/svg">
<path d="M11 2.99998C12.4666 2.99998 13.6666 4.19998 13.6666 5.66665C13.6666 7.13331 12.4666 8.33331 11 8.33331C9.53331 8.33331 8.33331 7.13331 8.33331 5.66665C8.33331 4.19998 9.53331 2.99998 11 2.99998ZM11 15C14.6 15 18.7333 16.72 19 17.6666V19H2.99998V17.68C3.26665 16.72 7.39998 15 11 15ZM11 0.333313C8.05331 0.333313 5.66665 2.71998 5.66665 5.66665C5.66665 8.61331 8.05331 11 11 11C13.9466 11 16.3333 8.61331 16.3333 5.66665C16.3333 2.71998 13.9466 0.333313 11 0.333313ZM11 12.3333C7.43998 12.3333 0.333313 14.12 0.333313 17.6666V21.6666H21.6666V17.6666C21.6666 14.12 14.56 12.3333 11 12.3333Z" fill="white"/>
</svg>
